<?xml version="1.0" standalone="no"?>
<!DOCTYPE svg PUBLIC "-//W3C//DTD SVG 20010904//EN"
 "http://www.w3.org/TR/2001/REC-SVG-20010904/DTD/svg10.dtd">
<svg version="1.0" xmlns="http://www.w3.org/2000/svg"
 width="900.000000pt" height="240.000000pt" viewBox="0 0 900.000000 240.000000"
 preserveAspectRatio="xMidYMid meet">
<metadata>
Created by potrace 1.10, written by Peter Selinger 2001-2011
</metadata>
<g transform="translate(0.000000,240.000000) scale(0.100000,-0.100000)"
fill="#045a4f" stroke="none">
<path d="M1721 2003 c-28 -42 -51 -82 -51 -89 0 -6 17 -24 38 -40 70 -53 100
-92 125 -166 14 -43 14 -52 0 -93 -24 -72 -42 -59 -41 30 1 95 -18 127 -117
200 -72 54 -81 56 -101 34 -15 -16 -18 -37 -19 -102 0 -81 3 -92 50 -176 8
-14 12 -29 9 -33 -3 -4 -119 -8 -257 -8 -139 0 -258 -4 -265 -9 -9 -5 -12 -26
-10 -67 l3 -59 150 -3 c82 -1 153 -6 158 -11 4 -4 -31 -48 -80 -97 -132 -133
-183 -252 -183 -424 0 -235 125 -431 340 -536 259 -126 562 -56 747 171 46 56
72 105 99 185 27 78 27 292 0 370 -37 107 -97 194 -180 260 -31 25 -56 48 -56
52 0 5 -1 11 -2 16 -2 4 67 9 152 12 l155 5 0 65 0 65 -245 5 c-276 6 -261 0
-219 82 43 84 17 221 -67 349 -69 104 -73 104 -133 12z m-48 -685 c13 -52 -34
-180 -97 -263 -63 -84 -208 -184 -268 -185 -26 0 -28 3 -28 43 0 24 7 66 16
93 50 154 125 239 266 301 87 39 104 40 111 11z m237 -7 l35 -16 -1 -95 c-1
-118 -42 -251 -89 -290 -14 -11 -22 -8 -59 29 -64 63 -74 85 -54 124 28 58 47
111 63 182 9 39 18 76 20 83 5 15 27 10 85 -17z m233 -215 c35 -71 47 -126 46
-216 -1 -105 -8 -124 -45 -128 -31 -3 -126 28 -158 51 -17 13 -17 16 11 73 35
69 56 128 73 204 7 30 15 58 17 63 11 19 32 2 56 -47z m-444 -250 c63 -64 62
-76 -10 -130 -65 -48 -130 -81 -212 -106 -74 -23 -85 -21 -116 20 -45 61 -47
110 -4 110 26 0 162 73 215 116 29 23 58 43 63 43 6 1 35 -23 64 -53z m236
-172 c17 -8 54 -24 84 -35 30 -10 59 -23 64 -28 15 -15 -81 -102 -147 -134
-32 -16 -85 -33 -119 -39 -73 -11 -189 -2 -229 18 -30 15 -38 44 -13 44 30 0
159 76 224 132 71 61 89 67 136 42z"/>
<path d="M3095 1568 c-2 -7 -6 -29 -7 -48 l-3 -35 -99 -3 c-55 -1 -106 -8
-113 -14 -9 -7 -13 -27 -11 -52 3 -40 4 -41 41 -44 21 -2 40 -9 43 -17 3 -7
-6 -36 -20 -64 -33 -64 -36 -162 -7 -219 62 -120 221 -183 343 -135 153 59
219 214 148 349 -17 32 -29 63 -26 71 3 8 22 13 46 13 l41 0 -3 53 -3 52 -99
3 c-55 1 -106 7 -112 13 -7 6 -14 27 -16 47 l-3 37 -68 3 c-48 2 -69 -1 -72
-10z m165 -283 c68 -65 62 -161 -12 -215 -66 -48 -135 -37 -191 30 -37 44 -43
89 -19 136 35 69 63 85 140 80 42 -2 59 -9 82 -31z"/>
<path d="M4718 1562 c-10 -2 -20 -13 -23 -25 -3 -12 -4 -146 -3 -297 l3 -275
60 0 60 0 3 99 c1 55 7 106 13 112 6 7 34 14 62 16 l52 3 3 52 c3 58 1 60 -83
65 l-40 3 -3 118 c-2 82 -6 119 -15 122 -22 7 -72 11 -89 7z"/>
<path d="M5885 1563 c-22 -3 -45 -9 -52 -15 -19 -15 -19 -1001 0 -1016 15 -13
98 -19 115 -8 17 10 17 1017 0 1034 -7 7 -14 11 -17 10 -4 -1 -24 -3 -46 -5z"/>
<path d="M3567 1554 c-9 -9 -10 -736 -1 -758 7 -19 94 -22 112 -4 8 8 12 59
12 164 0 111 3 154 13 162 7 6 37 12 67 14 l55 3 3 58 3 57 -53 0 c-83 0 -82
-1 -88 162 l-5 143 -55 3 c-31 2 -59 0 -63 -4z"/>
<path d="M7657 1553 c-4 -3 -7 -52 -7 -108 0 -117 -7 -133 -65 -137 -36 -3
-40 -6 -43 -32 -2 -15 -1 -39 2 -52 5 -20 13 -24 45 -24 21 0 43 -6 49 -13 6
-7 13 -62 14 -123 l3 -109 39 -3 c22 -2 49 -1 60 2 21 5 21 10 23 292 2 198
-1 292 -8 301 -12 13 -100 19 -112 6z"/>
<path d="M7856 1544 c-4 -9 -6 -144 -6 -300 l1 -284 23 -6 c13 -3 40 -4 62 -2
l39 3 0 300 0 300 -56 3 c-46 2 -58 0 -63 -14z"/>
<path d="M4113 1528 c-4 -7 -10 -71 -13 -143 -5 -115 -9 -136 -33 -186 -15
-31 -45 -77 -67 -102 -22 -25 -40 -49 -40 -54 0 -17 56 -63 77 -63 19 0 57 36
111 106 l22 29 23 -30 c34 -46 103 -115 115 -115 12 0 73 60 113 110 l26 33
19 -23 c55 -68 99 -110 114 -110 17 0 70 52 70 69 0 4 -15 25 -33 47 -79 95
-97 148 -106 309 l-6 130 -49 3 c-32 2 -52 -1 -57 -10 -5 -7 -9 -52 -9 -99 0
-127 -30 -256 -65 -281 -49 -35 -94 95 -95 273 0 60 -4 99 -12 107 -16 16 -95
15 -105 0z"/>
<path d="M5342 1528 c-8 -8 -12 -54 -12 -140 0 -221 -39 -317 -187 -467 l-84
-84 33 -34 c18 -18 42 -33 55 -33 27 0 142 110 193 185 56 83 64 83 115 10 41
-60 172 -195 189 -195 5 0 27 17 48 37 l37 36 -74 79 c-149 155 -177 222 -185
441 -4 125 -8 160 -20 167 -21 14 -94 12 -108 -2z"/>
<path d="M6498 1518 c-12 -10 -17 -39 -21 -119 -4 -82 -9 -115 -27 -149 -33
-65 -122 -143 -217 -192 -47 -23 -87 -46 -90 -51 -8 -13 40 -77 63 -83 42 -11
222 101 300 186 21 22 41 39 45 38 4 -2 36 -30 71 -64 74 -71 225 -164 266
-164 21 0 80 75 68 87 -4 4 -39 24 -77 43 -180 91 -259 203 -259 367 0 45 -3
88 -6 97 -8 20 -92 22 -116 4z"/>
<path d="M7158 1520 l-23 -6 0 -264 0 -265 165 -3 c91 -1 190 1 220 5 l55 8 0
50 0 50 -141 -4 c-164 -4 -184 2 -184 54 0 18 6 37 13 42 6 4 57 10 112 13
l100 5 0 50 0 50 -99 3 c-55 1 -106 8 -113 14 -16 13 -17 60 -1 76 8 8 47 12
111 12 123 0 137 7 137 65 l0 45 -117 2 c-65 1 -139 2 -165 2 -25 1 -57 -1
-70 -4z"/>
<path d="M7321 886 c-8 -9 -11 -71 -9 -187 l3 -174 330 0 330 0 3 179 c2 123
-1 182 -9 186 -6 4 -152 8 -324 8 -251 1 -315 -1 -324 -12z m524 -116 c11 -17
13 -104 3 -122 -8 -16 -28 -18 -196 -18 -133 0 -192 4 -200 12 -16 16 -16 125
1 131 25 10 386 7 392 -3z"/>
<path d="M4137 883 c-12 -11 -8 -88 5 -101 9 -9 83 -12 270 -12 249 0 258 -1
268 -20 6 -12 10 -66 9 -126 -1 -58 3 -110 8 -115 6 -6 34 -9 64 -7 l54 3 0
190 0 190 -336 3 c-184 1 -338 -1 -342 -5z"/>
<path d="M3059 839 c-8 -5 -12 -151 -9 -301 0 -17 22 -18 329 -18 363 0 341
-4 341 65 0 18 -6 38 -13 44 -9 7 -101 12 -268 13 l-254 3 -3 75 c-3 117 -4
118 -63 122 -28 1 -55 0 -60 -3z"/>
<path d="M6102 761 c-15 -9 -24 -73 -15 -97 4 -12 79 -14 463 -14 325 0 459 3
462 11 2 6 1 32 -2 58 l-5 46 -445 2 c-245 2 -451 -1 -458 -6z"/>
</g>
</svg>
